<?xml version="1.0" encoding="UTF-8" standalone="no"?>
<svg
   xmlns:dc="http://purl.org/dc/elements/1.1/"
   xmlns:cc="http://creativecommons.org/ns#"
   xmlns:rdf="http://www.w3.org/1999/02/22-rdf-syntax-ns#"
   xmlns:svg="http://www.w3.org/2000/svg"
   xmlns="http://www.w3.org/2000/svg"
   xmlns:sodipodi="http://sodipodi.sourceforge.net/DTD/sodipodi-0.dtd"
   xmlns:inkscape="http://www.inkscape.org/namespaces/inkscape"
   sodipodi:docname="CPlogo2.svg"
   inkscape:version="1.0 (4035a4fb49, 2020-05-01)"
   id="svg1067"
   version="1.1"
   viewBox="0 0 100.0 100.0"
   height="100.0mm"
   width="100.0mm">
  <defs
     id="defs1061" />
  <sodipodi:namedview
     id="base"
     pagecolor="#ffffff"
     bordercolor="#666666"
     borderopacity="1.0"
     inkscape:pageopacity="0.0"
     inkscape:pageshadow="2"
     inkscape:zoom="31.678384"
     inkscape:cx="120.27125"
     inkscape:cy="51.933665"
     inkscape:document-units="mm"
     inkscape:current-layer="svg1067"
     inkscape:document-rotation="0"
     showgrid="false"
     inkscape:window-width="2560"
     inkscape:window-height="1377"
     inkscape:window-x="2552"
     inkscape:window-y="-8"
     inkscape:window-maximized="1" />
  <metadata
     id="metadata1064">
    <rdf:RDF>
      <cc:Work
         rdf:about="">
        <dc:format>image/svg+xml</dc:format>
        <dc:type
           rdf:resource="http://purl.org/dc/dcmitype/StillImage" />
        <dc:title />
      </cc:Work>
    </rdf:RDF>
  </metadata>
  <g
     inkscape:label="[fixed] BG"
     inkscape:groupmode="layer"
     sodipodi:insensitive="true"
     id="g1046">
    <rect
       x="0"
       y="0"
       width="100.0"
       height="100.0"
       style="fill:#FFFFFF;fill-opacity:1;stroke:none"
       id="rect1044" />
  </g>
  <g
     inkscape:label="Edge.Cuts"
     inkscape:groupmode="layer"
     id="g1048" />
  <g
     inkscape:label="B.Cu"
     inkscape:groupmode="layer"
     id="g1050" />
  <g
     inkscape:label="B.Mask"
     inkscape:groupmode="layer"
     id="g1052" />
  <g
     inkscape:label="B.SilkS"
     inkscape:groupmode="layer"
     id="g1054" />
  <g
     inkscape:label="F.Cu"
     inkscape:groupmode="layer"
     id="g1056" />
  <g
     inkscape:label="F.Mask"
     inkscape:groupmode="layer"
     id="g1058" />
  <g
     inkscape:label="F.SilkS"
     inkscape:groupmode="layer"
     id="g1060" />
  <g
     inkscape:label="Dwgs.User"
     inkscape:groupmode="layer"
     id="g1062" />
  <g
     inkscape:label="Drill"
     inkscape:groupmode="layer"
     id="g1064" />
  <path
     sodipodi:nodetypes="ssssszcccssssss"
     style="fill:none;fill-opacity:1;stroke:#000000;stroke-width:0.0425;stroke-miterlimit:4;stroke-dasharray:none;stroke-opacity:1"
     d="m 32.552471,18.639148 c -0.764533,-0.06685 -1.121833,-0.20969 -1.121833,-0.44847 0,-0.05575 0.04616,-0.28579 0.102586,-0.511205 0.163396,-0.652785 0.210884,-1.043285 0.209433,-1.72217 -0.0016,-0.74474 -0.173166,-1.050652 -0.445016,-1.819859 -0.296181,-0.838049 -0.372577,-1.123254 -0.404896,-2.020425 -0.03232,-0.897171 0.06698,-3.0529393 0.330056,-3.2413903 0.968609,-0.31165 3.919781,-0.364396 4.693022,-0.04132 0.150348,0.103749 0.448907,2.4396733 0.406108,3.2283203 -0.04106,0.66386 -0.108983,1.121271 -0.374407,2.068823 -0.309684,1.105561 -0.313719,1.122142 -0.360889,1.847142 -0.04331,0.665623 -0.01443,1.067575 0.144085,1.70087 0.126783,0.506515 0.12752,0.589145 0.0063,0.703055 -0.264455,0.248445 -1.832768,0.374825 -3.184518,0.25662 z"
     id="path909-4-6" />
  <path
     sodipodi:nodetypes="ccccc"
     id="path938-3"
     d="m 31.222801,8.8756287 c -0.118021,0.07393 -0.229874,0.901905 -0.229874,0.901905 1.691143,-0.55845 3.856694,-0.463841 5.123313,-0.138146 0,0 -0.136082,-0.651592 -0.200417,-0.805079 -0.920581,-0.378818 -3.362424,-0.355766 -4.693022,0.04132 z"
     style="color:#000000;font-style:normal;font-variant:normal;font-weight:normal;font-stretch:normal;font-size:medium;line-height:normal;font-family:sans-serif;font-variant-ligatures:normal;font-variant-position:normal;font-variant-caps:normal;font-variant-numeric:normal;font-variant-alternates:normal;font-variant-east-asian:normal;font-feature-settings:normal;font-variation-settings:normal;text-indent:0;text-align:start;text-decoration:none;text-decoration-line:none;text-decoration-style:solid;text-decoration-color:#000000;letter-spacing:normal;word-spacing:normal;text-transform:none;writing-mode:lr-tb;direction:ltr;text-orientation:mixed;dominant-baseline:auto;baseline-shift:baseline;text-anchor:start;white-space:normal;shape-padding:0;shape-margin:0;inline-size:0;clip-rule:nonzero;display:inline;overflow:visible;visibility:visible;opacity:1;isolation:auto;mix-blend-mode:normal;color-interpolation:sRGB;color-interpolation-filters:linearRGB;solid-color:#000000;solid-opacity:1;vector-effect:none;fill:#000000;fill-opacity:1;fill-rule:nonzero;stroke:none;stroke-width:0.132291px;stroke-linecap:butt;stroke-linejoin:miter;stroke-miterlimit:4;stroke-dasharray:none;stroke-dashoffset:0;stroke-opacity:1;color-rendering:auto;image-rendering:auto;shape-rendering:auto;text-rendering:auto;enable-background:accumulate;stop-color:#000000;stop-opacity:1" />
  <circle
     style="fill:none;fill-opacity:1;stroke:#000000;stroke-width:0.0753812;stroke-linecap:round;stroke-linejoin:round;stroke-miterlimit:4;stroke-dasharray:none;stroke-dashoffset:0;stroke-opacity:1"
     id="path2985-9-4"
     cx="33.569313"
     cy="12.553516"
     r="1.1198883" />
  <path
     id="path855"
     style="font-style:normal;font-variant:normal;font-weight:normal;font-stretch:normal;font-size:144px;line-height:1.25;font-family:'Swis721 BT';-inkscape-font-specification:'Swis721 BT';letter-spacing:0px;word-spacing:0px;fill:#000000;fill-opacity:1;stroke:none;stroke-width:0.0126131"
     d="m 33.692669,13.129116 h 0.297985 q 0.155201,0 0.216394,-0.04966 0.06208,-0.04966 0.06208,-0.170277 0,-0.116178 -0.06119,-0.166729 -0.06119,-0.05055 -0.203978,-0.05055 h -0.311288 z m -0.177372,0.708601 v -1.306345 h 0.480678 q 0.117066,0 0.178259,0.01153 0.06119,0.01153 0.109084,0.03813 0.07982,0.04346 0.122387,0.128595 0.04257,0.08514 0.04257,0.199543 0,0.109084 -0.04257,0.192449 -0.04257,0.08337 -0.124161,0.133029 -0.047,0.02838 -0.110857,0.0408 -0.06297,0.01153 -0.208412,0.01153 h -0.269606 v 0.55074 z" />
  <path
     style="fill:none;stroke:#000000;stroke-width:0.152408;stroke-linecap:butt;stroke-linejoin:round;stroke-miterlimit:4;stroke-dasharray:none;stroke-dashoffset:0;stroke-opacity:1"
     d="m 33.579543,12.793556 c -0.08876,0.05709 -0.194409,0.09021 -0.30779,0.09021 -0.314663,0 -0.569748,-0.255084 -0.569748,-0.569747 0,-0.314663 0.255085,-0.569748 0.569748,-0.569748 0.251681,0 0.465246,0.16319 0.540657,0.38953"
     id="path3779-8-7"
     inkscape:connector-curvature="0"
     sodipodi:nodetypes="csssc" />
</svg>
